<svg xmlns="http://www.w3.org/2000/svg" width="1360" height="1120" viewBox="0 0 1360 1120">
  <rect x="0" y="0" width="1360" height="1120" fill="#0b1020"/>

  <text x="28" y="40" fill="#e6edf3" font-size="28" font-family="-apple-system, BlinkMacSystemFont, Segoe UI, sans-serif">ToonKit Benchmark Results: Metal vs CPU</text>
  <text x="28" y="64" fill="#9fb0c0" font-size="13" font-family="-apple-system, BlinkMacSystemFont, Segoe UI, sans-serif">Source: ./.build/debug/ToonBenchmark · March 14, 2026 · Values shown directly on each bar</text>

  <rect x="920" y="20" width="414" height="56" rx="8" fill="#111a2b" stroke="#223146"/>
  <rect x="936" y="36" width="14" height="10" rx="2" fill="#5b9cff"/>
  <text x="956" y="45" fill="#9ec5ff" font-size="12" font-family="-apple-system, BlinkMacSystemFont, Segoe UI, sans-serif">WITHOUT acceleration</text>
  <rect x="1128" y="36" width="14" height="10" rx="2" fill="#31d0aa"/>
  <text x="1148" y="45" fill="#7be3c8" font-size="12" font-family="-apple-system, BlinkMacSystemFont, Segoe UI, sans-serif">WITH dynamic acceleration</text>
  <rect x="936" y="52" width="14" height="10" rx="2" fill="#f6c65b"/>
  <text x="956" y="61" fill="#ffe08a" font-size="12" font-family="-apple-system, BlinkMacSystemFont, Segoe UI, sans-serif">WITH forced acceleration</text>

  <rect x="20" y="90" width="1320" height="300" rx="10" fill="#0f1627" stroke="#223146"/>
  <text x="34" y="118" fill="#dce6ef" font-size="16" font-family="-apple-system, BlinkMacSystemFont, Segoe UI, sans-serif">Core Throughput (ops/s)</text>
  <text x="34" y="138" fill="#9fb0c0" font-size="12" font-family="-apple-system, BlinkMacSystemFont, Segoe UI, sans-serif">Workloads where CPU is already strong; dedicated scale prevents flattening</text>

  <line x1="460" y1="152" x2="1260" y2="152" stroke="#1d2a3a"/>
  <line x1="460" y1="372" x2="1260" y2="372" stroke="#1d2a3a"/>
  <line x1="460" y1="152" x2="460" y2="372" stroke="#1d2a3a"/>
  <line x1="620" y1="152" x2="620" y2="372" stroke="#1d2a3a"/>
  <line x1="780" y1="152" x2="780" y2="372" stroke="#1d2a3a"/>
  <line x1="940" y1="152" x2="940" y2="372" stroke="#1d2a3a"/>
  <line x1="1100" y1="152" x2="1100" y2="372" stroke="#1d2a3a"/>
  <line x1="1260" y1="152" x2="1260" y2="372" stroke="#1d2a3a"/>
  <text x="460" y="144" fill="#9fb0c0" font-size="11" font-family="-apple-system, BlinkMacSystemFont, Segoe UI, sans-serif">0</text>
  <text x="620" y="144" fill="#9fb0c0" font-size="11" font-family="-apple-system, BlinkMacSystemFont, Segoe UI, sans-serif">16k</text>
  <text x="780" y="144" fill="#9fb0c0" font-size="11" font-family="-apple-system, BlinkMacSystemFont, Segoe UI, sans-serif">32k</text>
  <text x="940" y="144" fill="#9fb0c0" font-size="11" font-family="-apple-system, BlinkMacSystemFont, Segoe UI, sans-serif">48k</text>
  <text x="1100" y="144" fill="#9fb0c0" font-size="11" font-family="-apple-system, BlinkMacSystemFont, Segoe UI, sans-serif">64k</text>
  <text x="1260" y="144" text-anchor="end" fill="#9fb0c0" font-size="11" font-family="-apple-system, BlinkMacSystemFont, Segoe UI, sans-serif">80k</text>

  <text x="34" y="182" fill="#dce6ef" font-size="13" font-family="-apple-system, BlinkMacSystemFont, Segoe UI, sans-serif">Encode structured payload</text>
  <rect x="460" y="168" width="159" height="10" rx="2" fill="#5b9cff"/>
  <rect x="460" y="182" width="168" height="10" rx="2" fill="#31d0aa"/>
  <rect x="460" y="196" width="25" height="10" rx="2" fill="#f6c65b"/>
  <text x="624" y="176" fill="#9ec5ff" font-size="10" font-family="-apple-system, BlinkMacSystemFont, Segoe UI, sans-serif">15,904</text>
  <text x="633" y="190" fill="#7be3c8" font-size="10" font-family="-apple-system, BlinkMacSystemFont, Segoe UI, sans-serif">16,765</text>
  <text x="491" y="204" fill="#ffe08a" font-size="10" font-family="-apple-system, BlinkMacSystemFont, Segoe UI, sans-serif">2,529</text>

  <text x="34" y="236" fill="#dce6ef" font-size="13" font-family="-apple-system, BlinkMacSystemFont, Segoe UI, sans-serif">Round-trip structured payload</text>
  <rect x="460" y="222" width="75" height="10" rx="2" fill="#5b9cff"/>
  <rect x="460" y="236" width="68" height="10" rx="2" fill="#31d0aa"/>
  <rect x="460" y="250" width="21" height="10" rx="2" fill="#f6c65b"/>
  <text x="541" y="230" fill="#9ec5ff" font-size="10" font-family="-apple-system, BlinkMacSystemFont, Segoe UI, sans-serif">7,503</text>
  <text x="534" y="244" fill="#7be3c8" font-size="10" font-family="-apple-system, BlinkMacSystemFont, Segoe UI, sans-serif">6,788</text>
  <text x="487" y="258" fill="#ffe08a" font-size="10" font-family="-apple-system, BlinkMacSystemFont, Segoe UI, sans-serif">2,092</text>

  <text x="34" y="290" fill="#dce6ef" font-size="13" font-family="-apple-system, BlinkMacSystemFont, Segoe UI, sans-serif">Encode primitive array</text>
  <rect x="460" y="276" width="724" height="10" rx="2" fill="#5b9cff"/>
  <rect x="460" y="290" width="703" height="10" rx="2" fill="#31d0aa"/>
  <rect x="460" y="304" width="57" height="10" rx="2" fill="#f6c65b"/>
  <text x="1188" y="284" fill="#9ec5ff" font-size="10" font-family="-apple-system, BlinkMacSystemFont, Segoe UI, sans-serif">72,452</text>
  <text x="1167" y="298" fill="#7be3c8" font-size="10" font-family="-apple-system, BlinkMacSystemFont, Segoe UI, sans-serif">70,315</text>
  <text x="523" y="312" fill="#ffe08a" font-size="10" font-family="-apple-system, BlinkMacSystemFont, Segoe UI, sans-serif">5,743</text>

  <text x="34" y="344" fill="#dce6ef" font-size="13" font-family="-apple-system, BlinkMacSystemFont, Segoe UI, sans-serif">Decode structured payload (control)</text>
  <rect x="460" y="330" width="143" height="10" rx="2" fill="#5b9cff"/>
  <rect x="460" y="344" width="143" height="10" rx="2" fill="#31d0aa"/>
  <rect x="460" y="358" width="142" height="10" rx="2" fill="#f6c65b"/>
  <text x="608" y="338" fill="#9ec5ff" font-size="10" font-family="-apple-system, BlinkMacSystemFont, Segoe UI, sans-serif">14,342</text>
  <text x="608" y="352" fill="#7be3c8" font-size="10" font-family="-apple-system, BlinkMacSystemFont, Segoe UI, sans-serif">14,365</text>
  <text x="607" y="366" fill="#ffe08a" font-size="10" font-family="-apple-system, BlinkMacSystemFont, Segoe UI, sans-serif">14,284</text>

  <rect x="20" y="404" width="1320" height="210" rx="10" fill="#0f1627" stroke="#223146"/>
  <text x="34" y="432" fill="#dce6ef" font-size="16" font-family="-apple-system, BlinkMacSystemFont, Segoe UI, sans-serif">Realistic Feed Throughput (ops/s)</text>
  <text x="34" y="452" fill="#9fb0c0" font-size="12" font-family="-apple-system, BlinkMacSystemFont, Segoe UI, sans-serif">Dedicated low-range scale highlights practical dynamic gain</text>

  <line x1="460" y1="468" x2="1260" y2="468" stroke="#1d2a3a"/>
  <line x1="460" y1="594" x2="1260" y2="594" stroke="#1d2a3a"/>
  <line x1="460" y1="468" x2="460" y2="594" stroke="#1d2a3a"/>
  <line x1="620" y1="468" x2="620" y2="594" stroke="#1d2a3a"/>
  <line x1="780" y1="468" x2="780" y2="594" stroke="#1d2a3a"/>
  <line x1="940" y1="468" x2="940" y2="594" stroke="#1d2a3a"/>
  <line x1="1100" y1="468" x2="1100" y2="594" stroke="#1d2a3a"/>
  <line x1="1260" y1="468" x2="1260" y2="594" stroke="#1d2a3a"/>
  <text x="460" y="460" fill="#9fb0c0" font-size="11" font-family="-apple-system, BlinkMacSystemFont, Segoe UI, sans-serif">0</text>
  <text x="620" y="460" fill="#9fb0c0" font-size="11" font-family="-apple-system, BlinkMacSystemFont, Segoe UI, sans-serif">8</text>
  <text x="780" y="460" fill="#9fb0c0" font-size="11" font-family="-apple-system, BlinkMacSystemFont, Segoe UI, sans-serif">16</text>
  <text x="940" y="460" fill="#9fb0c0" font-size="11" font-family="-apple-system, BlinkMacSystemFont, Segoe UI, sans-serif">24</text>
  <text x="1100" y="460" fill="#9fb0c0" font-size="11" font-family="-apple-system, BlinkMacSystemFont, Segoe UI, sans-serif">32</text>
  <text x="1260" y="460" text-anchor="end" fill="#9fb0c0" font-size="11" font-family="-apple-system, BlinkMacSystemFont, Segoe UI, sans-serif">40</text>

  <text x="34" y="518" fill="#dce6ef" font-size="13" font-family="-apple-system, BlinkMacSystemFont, Segoe UI, sans-serif">Encode realistic exchange-rate feed</text>
  <rect x="460" y="504" width="540" height="12" rx="2" fill="#5b9cff"/>
  <rect x="460" y="520" width="640" height="12" rx="2" fill="#31d0aa"/>
  <rect x="460" y="536" width="520" height="12" rx="2" fill="#f6c65b"/>
  <text x="1006" y="514" fill="#9ec5ff" font-size="11" font-family="-apple-system, BlinkMacSystemFont, Segoe UI, sans-serif">27 ops/s</text>
  <text x="1106" y="530" fill="#7be3c8" font-size="11" font-family="-apple-system, BlinkMacSystemFont, Segoe UI, sans-serif">32 ops/s</text>
  <text x="986" y="546" fill="#ffe08a" font-size="11" font-family="-apple-system, BlinkMacSystemFont, Segoe UI, sans-serif">26 ops/s</text>

  <text x="34" y="582" fill="#7be3c8" font-size="12" font-family="-apple-system, BlinkMacSystemFont, Segoe UI, sans-serif">Dynamic speedup: 1.15x</text>
  <text x="190" y="582" fill="#ffe08a" font-size="12" font-family="-apple-system, BlinkMacSystemFont, Segoe UI, sans-serif">Forced speedup: 0.94x</text>

  <rect x="20" y="628" width="1320" height="220" rx="10" fill="#0f1627" stroke="#223146"/>
  <text x="34" y="656" fill="#dce6ef" font-size="16" font-family="-apple-system, BlinkMacSystemFont, Segoe UI, sans-serif">Large-String Throughput (ops/s)</text>
  <text x="34" y="676" fill="#9fb0c0" font-size="12" font-family="-apple-system, BlinkMacSystemFont, Segoe UI, sans-serif">Separate scale shows high GPU throughput clearly</text>

  <line x1="460" y1="692" x2="1260" y2="692" stroke="#1d2a3a"/>
  <line x1="460" y1="828" x2="1260" y2="828" stroke="#1d2a3a"/>
  <line x1="460" y1="692" x2="460" y2="828" stroke="#1d2a3a"/>
  <line x1="620" y1="692" x2="620" y2="828" stroke="#1d2a3a"/>
  <line x1="780" y1="692" x2="780" y2="828" stroke="#1d2a3a"/>
  <line x1="940" y1="692" x2="940" y2="828" stroke="#1d2a3a"/>
  <line x1="1100" y1="692" x2="1100" y2="828" stroke="#1d2a3a"/>
  <line x1="1260" y1="692" x2="1260" y2="828" stroke="#1d2a3a"/>
  <text x="460" y="684" fill="#9fb0c0" font-size="11" font-family="-apple-system, BlinkMacSystemFont, Segoe UI, sans-serif">0</text>
  <text x="620" y="684" fill="#9fb0c0" font-size="11" font-family="-apple-system, BlinkMacSystemFont, Segoe UI, sans-serif">28</text>
  <text x="780" y="684" fill="#9fb0c0" font-size="11" font-family="-apple-system, BlinkMacSystemFont, Segoe UI, sans-serif">56</text>
  <text x="940" y="684" fill="#9fb0c0" font-size="11" font-family="-apple-system, BlinkMacSystemFont, Segoe UI, sans-serif">84</text>
  <text x="1100" y="684" fill="#9fb0c0" font-size="11" font-family="-apple-system, BlinkMacSystemFont, Segoe UI, sans-serif">112</text>
  <text x="1260" y="684" text-anchor="end" fill="#9fb0c0" font-size="11" font-family="-apple-system, BlinkMacSystemFont, Segoe UI, sans-serif">140</text>

  <text x="34" y="744" fill="#dce6ef" font-size="13" font-family="-apple-system, BlinkMacSystemFont, Segoe UI, sans-serif">Encode large escaped string array</text>
  <rect x="460" y="730" width="6" height="12" rx="2" fill="#5b9cff"/>
  <rect x="460" y="746" width="720" height="12" rx="2" fill="#31d0aa"/>
  <rect x="460" y="762" width="463" height="12" rx="2" fill="#f6c65b"/>
  <text x="472" y="740" fill="#9ec5ff" font-size="11" font-family="-apple-system, BlinkMacSystemFont, Segoe UI, sans-serif">1</text>
  <text x="1186" y="756" fill="#7be3c8" font-size="11" font-family="-apple-system, BlinkMacSystemFont, Segoe UI, sans-serif">126</text>
  <text x="929" y="772" fill="#ffe08a" font-size="11" font-family="-apple-system, BlinkMacSystemFont, Segoe UI, sans-serif">81</text>

  <text x="34" y="810" fill="#dce6ef" font-size="13" font-family="-apple-system, BlinkMacSystemFont, Segoe UI, sans-serif">Encode large safe ASCII string array</text>
  <rect x="460" y="796" width="17" height="12" rx="2" fill="#5b9cff"/>
  <rect x="460" y="812" width="509" height="12" rx="2" fill="#31d0aa"/>
  <rect x="460" y="828" width="377" height="12" rx="2" fill="#f6c65b"/>
  <text x="483" y="806" fill="#9ec5ff" font-size="11" font-family="-apple-system, BlinkMacSystemFont, Segoe UI, sans-serif">3</text>
  <text x="975" y="822" fill="#7be3c8" font-size="11" font-family="-apple-system, BlinkMacSystemFont, Segoe UI, sans-serif">89</text>
  <text x="843" y="838" fill="#ffe08a" font-size="11" font-family="-apple-system, BlinkMacSystemFont, Segoe UI, sans-serif">66</text>

  <rect x="20" y="862" width="1320" height="238" rx="10" fill="#0f1627" stroke="#223146"/>
  <text x="34" y="890" fill="#dce6ef" font-size="16" font-family="-apple-system, BlinkMacSystemFont, Segoe UI, sans-serif">Speedup vs CPU Baseline (x)</text>
  <text x="34" y="910" fill="#9fb0c0" font-size="12" font-family="-apple-system, BlinkMacSystemFont, Segoe UI, sans-serif">Three bars shown for each category: baseline=1.00x, dynamic, forced</text>

  <line x1="460" y1="924" x2="1260" y2="924" stroke="#1d2a3a"/>
  <line x1="460" y1="1080" x2="1260" y2="1080" stroke="#1d2a3a"/>
  <line x1="460" y1="924" x2="460" y2="1080" stroke="#1d2a3a"/>
  <line x1="620" y1="924" x2="620" y2="1080" stroke="#1d2a3a"/>
  <line x1="780" y1="924" x2="780" y2="1080" stroke="#1d2a3a"/>
  <line x1="940" y1="924" x2="940" y2="1080" stroke="#1d2a3a"/>
  <line x1="1100" y1="924" x2="1100" y2="1080" stroke="#1d2a3a"/>
  <line x1="1260" y1="924" x2="1260" y2="1080" stroke="#1d2a3a"/>
  <text x="460" y="916" fill="#9fb0c0" font-size="11" font-family="-apple-system, BlinkMacSystemFont, Segoe UI, sans-serif">0x</text>
  <text x="620" y="916" fill="#9fb0c0" font-size="11" font-family="-apple-system, BlinkMacSystemFont, Segoe UI, sans-serif">22x</text>
  <text x="780" y="916" fill="#9fb0c0" font-size="11" font-family="-apple-system, BlinkMacSystemFont, Segoe UI, sans-serif">44x</text>
  <text x="940" y="916" fill="#9fb0c0" font-size="11" font-family="-apple-system, BlinkMacSystemFont, Segoe UI, sans-serif">66x</text>
  <text x="1100" y="916" fill="#9fb0c0" font-size="11" font-family="-apple-system, BlinkMacSystemFont, Segoe UI, sans-serif">88x</text>
  <text x="1260" y="916" text-anchor="end" fill="#9fb0c0" font-size="11" font-family="-apple-system, BlinkMacSystemFont, Segoe UI, sans-serif">110x</text>

  <text x="34" y="950" fill="#dce6ef" font-size="12" font-family="-apple-system, BlinkMacSystemFont, Segoe UI, sans-serif">Large escaped strings</text>
  <rect x="460" y="938" width="8" height="10" rx="2" fill="#5b9cff"/>
  <rect x="460" y="952" width="757" height="10" rx="2" fill="#31d0aa"/>
  <rect x="460" y="966" width="487" height="10" rx="2" fill="#f6c65b"/>
  <text x="474" y="946" fill="#9ec5ff" font-size="10" font-family="-apple-system, BlinkMacSystemFont, Segoe UI, sans-serif">1.00x</text>
  <text x="1222" y="960" fill="#7be3c8" font-size="10" font-family="-apple-system, BlinkMacSystemFont, Segoe UI, sans-serif">104.11x</text>
  <text x="952" y="974" fill="#ffe08a" font-size="10" font-family="-apple-system, BlinkMacSystemFont, Segoe UI, sans-serif">67.03x</text>

  <text x="34" y="1002" fill="#dce6ef" font-size="12" font-family="-apple-system, BlinkMacSystemFont, Segoe UI, sans-serif">Large safe ASCII strings</text>
  <rect x="460" y="990" width="8" height="10" rx="2" fill="#5b9cff"/>
  <rect x="460" y="1004" width="204" height="10" rx="2" fill="#31d0aa"/>
  <rect x="460" y="1018" width="152" height="10" rx="2" fill="#f6c65b"/>
  <text x="474" y="998" fill="#9ec5ff" font-size="10" font-family="-apple-system, BlinkMacSystemFont, Segoe UI, sans-serif">1.00x</text>
  <text x="670" y="1012" fill="#7be3c8" font-size="10" font-family="-apple-system, BlinkMacSystemFont, Segoe UI, sans-serif">28.12x</text>
  <text x="618" y="1026" fill="#ffe08a" font-size="10" font-family="-apple-system, BlinkMacSystemFont, Segoe UI, sans-serif">20.93x</text>

  <text x="34" y="1054" fill="#dce6ef" font-size="12" font-family="-apple-system, BlinkMacSystemFont, Segoe UI, sans-serif">Exchange-rate feed</text>
  <rect x="460" y="1042" width="8" height="10" rx="2" fill="#5b9cff"/>
  <rect x="460" y="1056" width="8" height="10" rx="2" fill="#31d0aa"/>
  <rect x="460" y="1070" width="7" height="10" rx="2" fill="#f6c65b"/>
  <text x="474" y="1050" fill="#9ec5ff" font-size="10" font-family="-apple-system, BlinkMacSystemFont, Segoe UI, sans-serif">1.00x</text>
  <text x="474" y="1064" fill="#7be3c8" font-size="10" font-family="-apple-system, BlinkMacSystemFont, Segoe UI, sans-serif">1.15x</text>
  <text x="474" y="1078" fill="#ffe08a" font-size="10" font-family="-apple-system, BlinkMacSystemFont, Segoe UI, sans-serif">0.94x</text>
</svg>
