<svg xmlns="http://www.w3.org/2000/svg" width="1400" height="1080" viewBox="0 0 1400 1080">
  <rect width="1400" height="1080" fill="#0b1020"/>

  <text x="36" y="44" fill="#e6edf3" font-size="30" font-family="-apple-system, BlinkMacSystemFont, Segoe UI, sans-serif">ToonKit Benchmark Results: Metal vs CPU</text>
  <text x="36" y="70" fill="#9fb0c0" font-size="14" font-family="-apple-system, BlinkMacSystemFont, Segoe UI, sans-serif">Source: ToonBenchmark · March 15, 2026 · Metal acceleration available for encode/decode</text>

  <rect x="980" y="22" width="384" height="72" rx="10" fill="#111a2b" stroke="#223146"/>
  <rect x="1000" y="40" width="16" height="10" rx="2" fill="#5b9cff"/>
  <text x="1024" y="49" fill="#9ec5ff" font-size="12" font-family="-apple-system, BlinkMacSystemFont, Segoe UI, sans-serif">WITHOUT acceleration</text>
  <rect x="1000" y="58" width="16" height="10" rx="2" fill="#31d0aa"/>
  <text x="1024" y="67" fill="#7be3c8" font-size="12" font-family="-apple-system, BlinkMacSystemFont, Segoe UI, sans-serif">WITH dynamic acceleration</text>
  <rect x="1186" y="58" width="16" height="10" rx="2" fill="#f6c65b"/>
  <text x="1210" y="67" fill="#ffe08a" font-size="12" font-family="-apple-system, BlinkMacSystemFont, Segoe UI, sans-serif">WITH forced acceleration</text>

  <rect x="24" y="112" width="1352" height="366" rx="12" fill="#0f1627" stroke="#223146"/>
  <text x="40" y="144" fill="#dce6ef" font-size="18" font-family="-apple-system, BlinkMacSystemFont, Segoe UI, sans-serif">Core Throughput (ops/s)</text>
  <text x="40" y="165" fill="#9fb0c0" font-size="12" font-family="-apple-system, BlinkMacSystemFont, Segoe UI, sans-serif">Scale: 0 → 80,000 ops/s</text>

  <line x1="500" y1="180" x2="1290" y2="180" stroke="#1d2a3a"/>
  <line x1="500" y1="450" x2="1290" y2="450" stroke="#1d2a3a"/>
  <line x1="500" y1="180" x2="500" y2="450" stroke="#1d2a3a"/>
  <line x1="658" y1="180" x2="658" y2="450" stroke="#1d2a3a"/>
  <line x1="816" y1="180" x2="816" y2="450" stroke="#1d2a3a"/>
  <line x1="974" y1="180" x2="974" y2="450" stroke="#1d2a3a"/>
  <line x1="1132" y1="180" x2="1132" y2="450" stroke="#1d2a3a"/>
  <line x1="1290" y1="180" x2="1290" y2="450" stroke="#1d2a3a"/>
  <text x="500" y="172" fill="#9fb0c0" font-size="11" font-family="-apple-system, BlinkMacSystemFont, Segoe UI, sans-serif">0</text>
  <text x="658" y="172" fill="#9fb0c0" font-size="11" font-family="-apple-system, BlinkMacSystemFont, Segoe UI, sans-serif">16k</text>
  <text x="816" y="172" fill="#9fb0c0" font-size="11" font-family="-apple-system, BlinkMacSystemFont, Segoe UI, sans-serif">32k</text>
  <text x="974" y="172" fill="#9fb0c0" font-size="11" font-family="-apple-system, BlinkMacSystemFont, Segoe UI, sans-serif">48k</text>
  <text x="1132" y="172" fill="#9fb0c0" font-size="11" font-family="-apple-system, BlinkMacSystemFont, Segoe UI, sans-serif">64k</text>
  <text x="1290" y="172" text-anchor="end" fill="#9fb0c0" font-size="11" font-family="-apple-system, BlinkMacSystemFont, Segoe UI, sans-serif">80k</text>

  <text x="40" y="214" fill="#dce6ef" font-size="13" font-family="-apple-system, BlinkMacSystemFont, Segoe UI, sans-serif">Encode structured payload</text>
  <rect x="500" y="200" width="169" height="10" rx="2" fill="#5b9cff"/>
  <rect x="500" y="214" width="170" height="10" rx="2" fill="#31d0aa"/>
  <rect x="500" y="228" width="26" height="10" rx="2" fill="#f6c65b"/>
  <text x="675" y="208" fill="#9ec5ff" font-size="10" font-family="-apple-system, BlinkMacSystemFont, Segoe UI, sans-serif">17,149</text>
  <text x="676" y="222" fill="#7be3c8" font-size="10" font-family="-apple-system, BlinkMacSystemFont, Segoe UI, sans-serif">17,218</text>
  <text x="532" y="236" fill="#ffe08a" font-size="10" font-family="-apple-system, BlinkMacSystemFont, Segoe UI, sans-serif">2,664</text>

  <text x="40" y="268" fill="#dce6ef" font-size="13" font-family="-apple-system, BlinkMacSystemFont, Segoe UI, sans-serif">Round-trip structured payload</text>
  <rect x="500" y="254" width="75" height="10" rx="2" fill="#5b9cff"/>
  <rect x="500" y="268" width="75" height="10" rx="2" fill="#31d0aa"/>
  <rect x="500" y="282" width="21" height="10" rx="2" fill="#f6c65b"/>
  <text x="581" y="262" fill="#9ec5ff" font-size="10" font-family="-apple-system, BlinkMacSystemFont, Segoe UI, sans-serif">7,574</text>
  <text x="581" y="276" fill="#7be3c8" font-size="10" font-family="-apple-system, BlinkMacSystemFont, Segoe UI, sans-serif">7,545</text>
  <text x="527" y="290" fill="#ffe08a" font-size="10" font-family="-apple-system, BlinkMacSystemFont, Segoe UI, sans-serif">2,082</text>

  <text x="40" y="322" fill="#dce6ef" font-size="13" font-family="-apple-system, BlinkMacSystemFont, Segoe UI, sans-serif">Encode primitive array</text>
  <rect x="500" y="308" width="707" height="10" rx="2" fill="#5b9cff"/>
  <rect x="500" y="322" width="710" height="10" rx="2" fill="#31d0aa"/>
  <rect x="500" y="336" width="58" height="10" rx="2" fill="#f6c65b"/>
  <text x="1213" y="316" fill="#9ec5ff" font-size="10" font-family="-apple-system, BlinkMacSystemFont, Segoe UI, sans-serif">71,640</text>
  <text x="1216" y="330" fill="#7be3c8" font-size="10" font-family="-apple-system, BlinkMacSystemFont, Segoe UI, sans-serif">71,919</text>
  <text x="564" y="344" fill="#ffe08a" font-size="10" font-family="-apple-system, BlinkMacSystemFont, Segoe UI, sans-serif">5,882</text>

  <text x="40" y="376" fill="#dce6ef" font-size="13" font-family="-apple-system, BlinkMacSystemFont, Segoe UI, sans-serif">Decode structured payload (control)</text>
  <rect x="500" y="362" width="138" height="10" rx="2" fill="#5b9cff"/>
  <rect x="500" y="376" width="138" height="10" rx="2" fill="#31d0aa"/>
  <rect x="500" y="390" width="42" height="10" rx="2" fill="#f6c65b"/>
  <text x="644" y="370" fill="#9ec5ff" font-size="10" font-family="-apple-system, BlinkMacSystemFont, Segoe UI, sans-serif">13,934</text>
  <text x="644" y="384" fill="#7be3c8" font-size="10" font-family="-apple-system, BlinkMacSystemFont, Segoe UI, sans-serif">13,983</text>
  <text x="548" y="398" fill="#ffe08a" font-size="10" font-family="-apple-system, BlinkMacSystemFont, Segoe UI, sans-serif">4,303</text>

  <text x="40" y="430" fill="#dce6ef" font-size="13" font-family="-apple-system, BlinkMacSystemFont, Segoe UI, sans-serif">Decode realistic exchange-rate feed</text>
  <rect x="500" y="416" width="1" height="10" rx="2" fill="#5b9cff"/>
  <rect x="500" y="430" width="1" height="10" rx="2" fill="#31d0aa"/>
  <rect x="500" y="444" width="1" height="10" rx="2" fill="#f6c65b"/>
  <text x="510" y="424" fill="#9ec5ff" font-size="10" font-family="-apple-system, BlinkMacSystemFont, Segoe UI, sans-serif">33</text>
  <text x="510" y="438" fill="#7be3c8" font-size="10" font-family="-apple-system, BlinkMacSystemFont, Segoe UI, sans-serif">42</text>
  <text x="510" y="452" fill="#ffe08a" font-size="10" font-family="-apple-system, BlinkMacSystemFont, Segoe UI, sans-serif">42</text>

  <rect x="24" y="498" width="1352" height="250" rx="12" fill="#0f1627" stroke="#223146"/>
  <text x="40" y="530" fill="#dce6ef" font-size="18" font-family="-apple-system, BlinkMacSystemFont, Segoe UI, sans-serif">Large String Throughput (ops/s)</text>
  <text x="40" y="551" fill="#9fb0c0" font-size="12" font-family="-apple-system, BlinkMacSystemFont, Segoe UI, sans-serif">Scale: 0 → 140 ops/s (dedicated scale for large string array workloads)</text>

  <line x1="500" y1="566" x2="1290" y2="566" stroke="#1d2a3a"/>
  <line x1="500" y1="730" x2="1290" y2="730" stroke="#1d2a3a"/>
  <line x1="500" y1="566" x2="500" y2="730" stroke="#1d2a3a"/>
  <line x1="658" y1="566" x2="658" y2="730" stroke="#1d2a3a"/>
  <line x1="816" y1="566" x2="816" y2="730" stroke="#1d2a3a"/>
  <line x1="974" y1="566" x2="974" y2="730" stroke="#1d2a3a"/>
  <line x1="1132" y1="566" x2="1132" y2="730" stroke="#1d2a3a"/>
  <line x1="1290" y1="566" x2="1290" y2="730" stroke="#1d2a3a"/>
  <text x="500" y="558" fill="#9fb0c0" font-size="11" font-family="-apple-system, BlinkMacSystemFont, Segoe UI, sans-serif">0</text>
  <text x="658" y="558" fill="#9fb0c0" font-size="11" font-family="-apple-system, BlinkMacSystemFont, Segoe UI, sans-serif">28</text>
  <text x="816" y="558" fill="#9fb0c0" font-size="11" font-family="-apple-system, BlinkMacSystemFont, Segoe UI, sans-serif">56</text>
  <text x="974" y="558" fill="#9fb0c0" font-size="11" font-family="-apple-system, BlinkMacSystemFont, Segoe UI, sans-serif">84</text>
  <text x="1132" y="558" fill="#9fb0c0" font-size="11" font-family="-apple-system, BlinkMacSystemFont, Segoe UI, sans-serif">112</text>
  <text x="1290" y="558" text-anchor="end" fill="#9fb0c0" font-size="11" font-family="-apple-system, BlinkMacSystemFont, Segoe UI, sans-serif">140</text>

  <text x="40" y="606" fill="#dce6ef" font-size="13" font-family="-apple-system, BlinkMacSystemFont, Segoe UI, sans-serif">Encode large escaped string array</text>
  <rect x="500" y="592" width="6" height="12" rx="2" fill="#5b9cff"/>
  <rect x="500" y="608" width="717" height="12" rx="2" fill="#31d0aa"/>
  <rect x="500" y="624" width="491" height="12" rx="2" fill="#f6c65b"/>
  <text x="512" y="602" fill="#9ec5ff" font-size="11" font-family="-apple-system, BlinkMacSystemFont, Segoe UI, sans-serif">1</text>
  <text x="1223" y="618" fill="#7be3c8" font-size="11" font-family="-apple-system, BlinkMacSystemFont, Segoe UI, sans-serif">127</text>
  <text x="997" y="634" fill="#ffe08a" font-size="11" font-family="-apple-system, BlinkMacSystemFont, Segoe UI, sans-serif">87</text>

  <text x="40" y="686" fill="#dce6ef" font-size="13" font-family="-apple-system, BlinkMacSystemFont, Segoe UI, sans-serif">Encode large safe ASCII string array</text>
  <rect x="500" y="672" width="17" height="12" rx="2" fill="#5b9cff"/>
  <rect x="500" y="688" width="525" height="12" rx="2" fill="#31d0aa"/>
  <rect x="500" y="704" width="322" height="12" rx="2" fill="#f6c65b"/>
  <text x="523" y="682" fill="#9ec5ff" font-size="11" font-family="-apple-system, BlinkMacSystemFont, Segoe UI, sans-serif">3</text>
  <text x="1031" y="698" fill="#7be3c8" font-size="11" font-family="-apple-system, BlinkMacSystemFont, Segoe UI, sans-serif">93</text>
  <text x="828" y="714" fill="#ffe08a" font-size="11" font-family="-apple-system, BlinkMacSystemFont, Segoe UI, sans-serif">57</text>

  <rect x="24" y="766" width="1352" height="190" rx="12" fill="#0f1627" stroke="#223146"/>
  <text x="40" y="798" fill="#dce6ef" font-size="18" font-family="-apple-system, BlinkMacSystemFont, Segoe UI, sans-serif">Large String Speedup vs CPU (x)</text>
  <text x="40" y="819" fill="#9fb0c0" font-size="12" font-family="-apple-system, BlinkMacSystemFont, Segoe UI, sans-serif">Scale: 0 → 110x</text>

  <line x1="500" y1="834" x2="1290" y2="834" stroke="#1d2a3a"/>
  <line x1="500" y1="938" x2="1290" y2="938" stroke="#1d2a3a"/>
  <line x1="500" y1="834" x2="500" y2="938" stroke="#1d2a3a"/>
  <line x1="658" y1="834" x2="658" y2="938" stroke="#1d2a3a"/>
  <line x1="816" y1="834" x2="816" y2="938" stroke="#1d2a3a"/>
  <line x1="974" y1="834" x2="974" y2="938" stroke="#1d2a3a"/>
  <line x1="1132" y1="834" x2="1132" y2="938" stroke="#1d2a3a"/>
  <line x1="1290" y1="834" x2="1290" y2="938" stroke="#1d2a3a"/>
  <text x="500" y="826" fill="#9fb0c0" font-size="11" font-family="-apple-system, BlinkMacSystemFont, Segoe UI, sans-serif">0x</text>
  <text x="658" y="826" fill="#9fb0c0" font-size="11" font-family="-apple-system, BlinkMacSystemFont, Segoe UI, sans-serif">22x</text>
  <text x="816" y="826" fill="#9fb0c0" font-size="11" font-family="-apple-system, BlinkMacSystemFont, Segoe UI, sans-serif">44x</text>
  <text x="974" y="826" fill="#9fb0c0" font-size="11" font-family="-apple-system, BlinkMacSystemFont, Segoe UI, sans-serif">66x</text>
  <text x="1132" y="826" fill="#9fb0c0" font-size="11" font-family="-apple-system, BlinkMacSystemFont, Segoe UI, sans-serif">88x</text>
  <text x="1290" y="826" text-anchor="end" fill="#9fb0c0" font-size="11" font-family="-apple-system, BlinkMacSystemFont, Segoe UI, sans-serif">110x</text>

  <text x="40" y="868" fill="#dce6ef" font-size="13" font-family="-apple-system, BlinkMacSystemFont, Segoe UI, sans-serif">Escaped string arrays</text>
  <rect x="500" y="854" width="775" height="12" rx="2" fill="#31d0aa"/>
  <rect x="500" y="870" width="531" height="12" rx="2" fill="#f6c65b"/>
  <text x="1281" y="864" fill="#7be3c8" font-size="11" font-family="-apple-system, BlinkMacSystemFont, Segoe UI, sans-serif">107.98x</text>
  <text x="1037" y="880" fill="#ffe08a" font-size="11" font-family="-apple-system, BlinkMacSystemFont, Segoe UI, sans-serif">73.89x</text>

  <text x="40" y="920" fill="#dce6ef" font-size="13" font-family="-apple-system, BlinkMacSystemFont, Segoe UI, sans-serif">Safe ASCII string arrays</text>
  <rect x="500" y="906" width="209" height="12" rx="2" fill="#31d0aa"/>
  <rect x="500" y="922" width="129" height="12" rx="2" fill="#f6c65b"/>
  <text x="715" y="916" fill="#7be3c8" font-size="11" font-family="-apple-system, BlinkMacSystemFont, Segoe UI, sans-serif">29.10x</text>
  <text x="635" y="932" fill="#ffe08a" font-size="11" font-family="-apple-system, BlinkMacSystemFont, Segoe UI, sans-serif">17.92x</text>

  <rect x="24" y="974" width="1352" height="82" rx="12" fill="#0f1627" stroke="#223146"/>
  <text x="40" y="1004" fill="#dce6ef" font-size="16" font-family="-apple-system, BlinkMacSystemFont, Segoe UI, sans-serif">Head-to-Head Decode</text>
  <text x="40" y="1030" fill="#9fb0c0" font-size="13" font-family="-apple-system, BlinkMacSystemFont, Segoe UI, sans-serif">Large escaped string: ToonDecoder 69,937 ops/s · JSONDecoder 29,918 ops/s · Toon vs JSON 2.34x</text>
  <text x="40" y="1050" fill="#9fb0c0" font-size="13" font-family="-apple-system, BlinkMacSystemFont, Segoe UI, sans-serif">Large safe ASCII string: ToonDecoder 29,638 ops/s · JSONDecoder 171,360 ops/s · Toon vs JSON 0.17x</text>
</svg>
