<svg xmlns="http://www.w3.org/2000/svg" width="1360" height="1320" viewBox="0 0 1360 1320">
  <rect x="0" y="0" width="1360" height="1320" fill="#0b1020"/>

  <text x="28" y="40" fill="#e6edf3" font-size="28" font-family="-apple-system, BlinkMacSystemFont, Segoe UI, sans-serif">ToonKit Benchmark Results: Metal vs CPU</text>
  <text x="28" y="64" fill="#9fb0c0" font-size="13" font-family="-apple-system, BlinkMacSystemFont, Segoe UI, sans-serif">Source: ./.build/arm64-apple-macosx/debug/ToonBenchmark · March 15, 2026 · Metal encode/decode availability: true</text>

  <rect x="874" y="20" width="460" height="64" rx="8" fill="#111a2b" stroke="#223146"/>
  <rect x="890" y="36" width="14" height="10" rx="2" fill="#5b9cff"/>
  <text x="910" y="45" fill="#9ec5ff" font-size="12" font-family="-apple-system, BlinkMacSystemFont, Segoe UI, sans-serif">WITHOUT acceleration</text>
  <rect x="1110" y="36" width="14" height="10" rx="2" fill="#31d0aa"/>
  <text x="1130" y="45" fill="#7be3c8" font-size="12" font-family="-apple-system, BlinkMacSystemFont, Segoe UI, sans-serif">WITH dynamic acceleration</text>
  <rect x="890" y="56" width="14" height="10" rx="2" fill="#f6c65b"/>
  <text x="910" y="65" fill="#ffe08a" font-size="12" font-family="-apple-system, BlinkMacSystemFont, Segoe UI, sans-serif">WITH forced acceleration</text>

  <rect x="20" y="100" width="1320" height="332" rx="10" fill="#0f1627" stroke="#223146"/>
  <text x="34" y="128" fill="#dce6ef" font-size="16" font-family="-apple-system, BlinkMacSystemFont, Segoe UI, sans-serif">Core Throughput (ops/s)</text>
  <text x="34" y="148" fill="#9fb0c0" font-size="12" font-family="-apple-system, BlinkMacSystemFont, Segoe UI, sans-serif">Common workloads where Metal dispatch overhead matters more than raw bandwidth</text>

  <line x1="460" y1="164" x2="1260" y2="164" stroke="#1d2a3a"/>
  <line x1="460" y1="412" x2="1260" y2="412" stroke="#1d2a3a"/>
  <line x1="460" y1="164" x2="460" y2="412" stroke="#1d2a3a"/>
  <line x1="620" y1="164" x2="620" y2="412" stroke="#1d2a3a"/>
  <line x1="780" y1="164" x2="780" y2="412" stroke="#1d2a3a"/>
  <line x1="940" y1="164" x2="940" y2="412" stroke="#1d2a3a"/>
  <line x1="1100" y1="164" x2="1100" y2="412" stroke="#1d2a3a"/>
  <line x1="1260" y1="164" x2="1260" y2="412" stroke="#1d2a3a"/>
  <text x="460" y="156" fill="#9fb0c0" font-size="11" font-family="-apple-system, BlinkMacSystemFont, Segoe UI, sans-serif">0</text>
  <text x="620" y="156" fill="#9fb0c0" font-size="11" font-family="-apple-system, BlinkMacSystemFont, Segoe UI, sans-serif">16k</text>
  <text x="780" y="156" fill="#9fb0c0" font-size="11" font-family="-apple-system, BlinkMacSystemFont, Segoe UI, sans-serif">32k</text>
  <text x="940" y="156" fill="#9fb0c0" font-size="11" font-family="-apple-system, BlinkMacSystemFont, Segoe UI, sans-serif">48k</text>
  <text x="1100" y="156" fill="#9fb0c0" font-size="11" font-family="-apple-system, BlinkMacSystemFont, Segoe UI, sans-serif">64k</text>
  <text x="1260" y="156" text-anchor="end" fill="#9fb0c0" font-size="11" font-family="-apple-system, BlinkMacSystemFont, Segoe UI, sans-serif">80k</text>

  <text x="34" y="194" fill="#dce6ef" font-size="13" font-family="-apple-system, BlinkMacSystemFont, Segoe UI, sans-serif">Encode structured payload</text>
  <rect x="460" y="180" width="171" height="10" rx="2" fill="#5b9cff"/>
  <rect x="460" y="194" width="167" height="10" rx="2" fill="#31d0aa"/>
  <rect x="460" y="208" width="24" height="10" rx="2" fill="#f6c65b"/>
  <text x="636" y="188" fill="#9ec5ff" font-size="10" font-family="-apple-system, BlinkMacSystemFont, Segoe UI, sans-serif">17,066</text>
  <text x="632" y="202" fill="#7be3c8" font-size="10" font-family="-apple-system, BlinkMacSystemFont, Segoe UI, sans-serif">16,748</text>
  <text x="490" y="216" fill="#ffe08a" font-size="10" font-family="-apple-system, BlinkMacSystemFont, Segoe UI, sans-serif">2,376</text>

  <text x="34" y="254" fill="#dce6ef" font-size="13" font-family="-apple-system, BlinkMacSystemFont, Segoe UI, sans-serif">Round-trip structured payload</text>
  <rect x="460" y="240" width="72" height="10" rx="2" fill="#5b9cff"/>
  <rect x="460" y="254" width="71" height="10" rx="2" fill="#31d0aa"/>
  <rect x="460" y="268" width="20" height="10" rx="2" fill="#f6c65b"/>
  <text x="537" y="248" fill="#9ec5ff" font-size="10" font-family="-apple-system, BlinkMacSystemFont, Segoe UI, sans-serif">7,214</text>
  <text x="536" y="262" fill="#7be3c8" font-size="10" font-family="-apple-system, BlinkMacSystemFont, Segoe UI, sans-serif">7,130</text>
  <text x="486" y="276" fill="#ffe08a" font-size="10" font-family="-apple-system, BlinkMacSystemFont, Segoe UI, sans-serif">2,036</text>

  <text x="34" y="314" fill="#dce6ef" font-size="13" font-family="-apple-system, BlinkMacSystemFont, Segoe UI, sans-serif">Encode primitive array</text>
  <rect x="460" y="300" width="701" height="10" rx="2" fill="#5b9cff"/>
  <rect x="460" y="314" width="693" height="10" rx="2" fill="#31d0aa"/>
  <rect x="460" y="328" width="55" height="10" rx="2" fill="#f6c65b"/>
  <text x="1166" y="308" fill="#9ec5ff" font-size="10" font-family="-apple-system, BlinkMacSystemFont, Segoe UI, sans-serif">70,131</text>
  <text x="1158" y="322" fill="#7be3c8" font-size="10" font-family="-apple-system, BlinkMacSystemFont, Segoe UI, sans-serif">69,282</text>
  <text x="521" y="336" fill="#ffe08a" font-size="10" font-family="-apple-system, BlinkMacSystemFont, Segoe UI, sans-serif">5,504</text>

  <text x="34" y="374" fill="#dce6ef" font-size="13" font-family="-apple-system, BlinkMacSystemFont, Segoe UI, sans-serif">Decode structured payload (control)</text>
  <rect x="460" y="360" width="137" height="10" rx="2" fill="#5b9cff"/>
  <rect x="460" y="374" width="137" height="10" rx="2" fill="#31d0aa"/>
  <rect x="460" y="388" width="41" height="10" rx="2" fill="#f6c65b"/>
  <text x="602" y="368" fill="#9ec5ff" font-size="10" font-family="-apple-system, BlinkMacSystemFont, Segoe UI, sans-serif">13,739</text>
  <text x="602" y="382" fill="#7be3c8" font-size="10" font-family="-apple-system, BlinkMacSystemFont, Segoe UI, sans-serif">13,739</text>
  <text x="507" y="396" fill="#ffe08a" font-size="10" font-family="-apple-system, BlinkMacSystemFont, Segoe UI, sans-serif">4,138</text>

  <rect x="20" y="448" width="1320" height="240" rx="10" fill="#0f1627" stroke="#223146"/>
  <text x="34" y="476" fill="#dce6ef" font-size="16" font-family="-apple-system, BlinkMacSystemFont, Segoe UI, sans-serif">Realistic Feed Throughput (ops/s)</text>
  <text x="34" y="496" fill="#9fb0c0" font-size="12" font-family="-apple-system, BlinkMacSystemFont, Segoe UI, sans-serif">This is the decode workload where the new Metal path now pays off</text>

  <line x1="460" y1="512" x2="1260" y2="512" stroke="#1d2a3a"/>
  <line x1="460" y1="668" x2="1260" y2="668" stroke="#1d2a3a"/>
  <line x1="460" y1="512" x2="460" y2="668" stroke="#1d2a3a"/>
  <line x1="620" y1="512" x2="620" y2="668" stroke="#1d2a3a"/>
  <line x1="780" y1="512" x2="780" y2="668" stroke="#1d2a3a"/>
  <line x1="940" y1="512" x2="940" y2="668" stroke="#1d2a3a"/>
  <line x1="1100" y1="512" x2="1100" y2="668" stroke="#1d2a3a"/>
  <line x1="1260" y1="512" x2="1260" y2="668" stroke="#1d2a3a"/>
  <text x="460" y="504" fill="#9fb0c0" font-size="11" font-family="-apple-system, BlinkMacSystemFont, Segoe UI, sans-serif">0</text>
  <text x="620" y="504" fill="#9fb0c0" font-size="11" font-family="-apple-system, BlinkMacSystemFont, Segoe UI, sans-serif">10</text>
  <text x="780" y="504" fill="#9fb0c0" font-size="11" font-family="-apple-system, BlinkMacSystemFont, Segoe UI, sans-serif">20</text>
  <text x="940" y="504" fill="#9fb0c0" font-size="11" font-family="-apple-system, BlinkMacSystemFont, Segoe UI, sans-serif">30</text>
  <text x="1100" y="504" fill="#9fb0c0" font-size="11" font-family="-apple-system, BlinkMacSystemFont, Segoe UI, sans-serif">40</text>
  <text x="1260" y="504" text-anchor="end" fill="#9fb0c0" font-size="11" font-family="-apple-system, BlinkMacSystemFont, Segoe UI, sans-serif">50</text>

  <text x="34" y="564" fill="#dce6ef" font-size="13" font-family="-apple-system, BlinkMacSystemFont, Segoe UI, sans-serif">Encode realistic exchange-rate feed</text>
  <rect x="460" y="550" width="448" height="12" rx="2" fill="#5b9cff"/>
  <rect x="460" y="566" width="512" height="12" rx="2" fill="#31d0aa"/>
  <rect x="460" y="582" width="432" height="12" rx="2" fill="#f6c65b"/>
  <text x="914" y="560" fill="#9ec5ff" font-size="11" font-family="-apple-system, BlinkMacSystemFont, Segoe UI, sans-serif">28 ops/s</text>
  <text x="978" y="576" fill="#7be3c8" font-size="11" font-family="-apple-system, BlinkMacSystemFont, Segoe UI, sans-serif">32 ops/s</text>
  <text x="898" y="592" fill="#ffe08a" font-size="11" font-family="-apple-system, BlinkMacSystemFont, Segoe UI, sans-serif">27 ops/s</text>

  <text x="34" y="638" fill="#dce6ef" font-size="13" font-family="-apple-system, BlinkMacSystemFont, Segoe UI, sans-serif">Decode realistic exchange-rate feed</text>
  <rect x="460" y="624" width="480" height="12" rx="2" fill="#5b9cff"/>
  <rect x="460" y="640" width="672" height="12" rx="2" fill="#31d0aa"/>
  <rect x="460" y="656" width="672" height="12" rx="2" fill="#f6c65b"/>
  <text x="946" y="634" fill="#9ec5ff" font-size="11" font-family="-apple-system, BlinkMacSystemFont, Segoe UI, sans-serif">30 ops/s</text>
  <text x="1138" y="650" fill="#7be3c8" font-size="11" font-family="-apple-system, BlinkMacSystemFont, Segoe UI, sans-serif">42 ops/s</text>
  <text x="1138" y="666" fill="#ffe08a" font-size="11" font-family="-apple-system, BlinkMacSystemFont, Segoe UI, sans-serif">42 ops/s</text>

  <rect x="20" y="704" width="1320" height="220" rx="10" fill="#0f1627" stroke="#223146"/>
  <text x="34" y="732" fill="#dce6ef" font-size="16" font-family="-apple-system, BlinkMacSystemFont, Segoe UI, sans-serif">Large-String Throughput (ops/s)</text>
  <text x="34" y="752" fill="#9fb0c0" font-size="12" font-family="-apple-system, BlinkMacSystemFont, Segoe UI, sans-serif">The original encode hotspot still shows the strongest GPU win</text>

  <line x1="460" y1="768" x2="1260" y2="768" stroke="#1d2a3a"/>
  <line x1="460" y1="904" x2="1260" y2="904" stroke="#1d2a3a"/>
  <line x1="460" y1="768" x2="460" y2="904" stroke="#1d2a3a"/>
  <line x1="620" y1="768" x2="620" y2="904" stroke="#1d2a3a"/>
  <line x1="780" y1="768" x2="780" y2="904" stroke="#1d2a3a"/>
  <line x1="940" y1="768" x2="940" y2="904" stroke="#1d2a3a"/>
  <line x1="1100" y1="768" x2="1100" y2="904" stroke="#1d2a3a"/>
  <line x1="1260" y1="768" x2="1260" y2="904" stroke="#1d2a3a"/>
  <text x="460" y="760" fill="#9fb0c0" font-size="11" font-family="-apple-system, BlinkMacSystemFont, Segoe UI, sans-serif">0</text>
  <text x="620" y="760" fill="#9fb0c0" font-size="11" font-family="-apple-system, BlinkMacSystemFont, Segoe UI, sans-serif">28</text>
  <text x="780" y="760" fill="#9fb0c0" font-size="11" font-family="-apple-system, BlinkMacSystemFont, Segoe UI, sans-serif">56</text>
  <text x="940" y="760" fill="#9fb0c0" font-size="11" font-family="-apple-system, BlinkMacSystemFont, Segoe UI, sans-serif">84</text>
  <text x="1100" y="760" fill="#9fb0c0" font-size="11" font-family="-apple-system, BlinkMacSystemFont, Segoe UI, sans-serif">112</text>
  <text x="1260" y="760" text-anchor="end" fill="#9fb0c0" font-size="11" font-family="-apple-system, BlinkMacSystemFont, Segoe UI, sans-serif">140</text>

  <text x="34" y="820" fill="#dce6ef" font-size="13" font-family="-apple-system, BlinkMacSystemFont, Segoe UI, sans-serif">Encode large escaped string array</text>
  <rect x="460" y="806" width="6" height="12" rx="2" fill="#5b9cff"/>
  <rect x="460" y="822" width="731" height="12" rx="2" fill="#31d0aa"/>
  <rect x="460" y="838" width="469" height="12" rx="2" fill="#f6c65b"/>
  <text x="472" y="816" fill="#9ec5ff" font-size="11" font-family="-apple-system, BlinkMacSystemFont, Segoe UI, sans-serif">1</text>
  <text x="1197" y="832" fill="#7be3c8" font-size="11" font-family="-apple-system, BlinkMacSystemFont, Segoe UI, sans-serif">128</text>
  <text x="935" y="848" fill="#ffe08a" font-size="11" font-family="-apple-system, BlinkMacSystemFont, Segoe UI, sans-serif">82</text>

  <text x="34" y="886" fill="#dce6ef" font-size="13" font-family="-apple-system, BlinkMacSystemFont, Segoe UI, sans-serif">Encode large safe ASCII string array</text>
  <rect x="460" y="872" width="17" height="12" rx="2" fill="#5b9cff"/>
  <rect x="460" y="888" width="509" height="12" rx="2" fill="#31d0aa"/>
  <rect x="460" y="904" width="349" height="12" rx="2" fill="#f6c65b"/>
  <text x="483" y="882" fill="#9ec5ff" font-size="11" font-family="-apple-system, BlinkMacSystemFont, Segoe UI, sans-serif">3</text>
  <text x="975" y="898" fill="#7be3c8" font-size="11" font-family="-apple-system, BlinkMacSystemFont, Segoe UI, sans-serif">89</text>
  <text x="815" y="914" fill="#ffe08a" font-size="11" font-family="-apple-system, BlinkMacSystemFont, Segoe UI, sans-serif">61</text>

  <rect x="20" y="940" width="1320" height="264" rx="10" fill="#0f1627" stroke="#223146"/>
  <text x="34" y="968" fill="#dce6ef" font-size="16" font-family="-apple-system, BlinkMacSystemFont, Segoe UI, sans-serif">Speedup vs CPU Baseline (x)</text>
  <text x="34" y="988" fill="#9fb0c0" font-size="12" font-family="-apple-system, BlinkMacSystemFont, Segoe UI, sans-serif">Baseline is always 1.00x; dynamic and forced bars are measured against the CPU path</text>

  <line x1="460" y1="1004" x2="1260" y2="1004" stroke="#1d2a3a"/>
  <line x1="460" y1="1184" x2="1260" y2="1184" stroke="#1d2a3a"/>
  <line x1="460" y1="1004" x2="460" y2="1184" stroke="#1d2a3a"/>
  <line x1="620" y1="1004" x2="620" y2="1184" stroke="#1d2a3a"/>
  <line x1="780" y1="1004" x2="780" y2="1184" stroke="#1d2a3a"/>
  <line x1="940" y1="1004" x2="940" y2="1184" stroke="#1d2a3a"/>
  <line x1="1100" y1="1004" x2="1100" y2="1184" stroke="#1d2a3a"/>
  <line x1="1260" y1="1004" x2="1260" y2="1184" stroke="#1d2a3a"/>
  <text x="460" y="996" fill="#9fb0c0" font-size="11" font-family="-apple-system, BlinkMacSystemFont, Segoe UI, sans-serif">0x</text>
  <text x="620" y="996" fill="#9fb0c0" font-size="11" font-family="-apple-system, BlinkMacSystemFont, Segoe UI, sans-serif">22x</text>
  <text x="780" y="996" fill="#9fb0c0" font-size="11" font-family="-apple-system, BlinkMacSystemFont, Segoe UI, sans-serif">44x</text>
  <text x="940" y="996" fill="#9fb0c0" font-size="11" font-family="-apple-system, BlinkMacSystemFont, Segoe UI, sans-serif">66x</text>
  <text x="1100" y="996" fill="#9fb0c0" font-size="11" font-family="-apple-system, BlinkMacSystemFont, Segoe UI, sans-serif">88x</text>
  <text x="1260" y="996" text-anchor="end" fill="#9fb0c0" font-size="11" font-family="-apple-system, BlinkMacSystemFont, Segoe UI, sans-serif">110x</text>

  <text x="34" y="1034" fill="#dce6ef" font-size="12" font-family="-apple-system, BlinkMacSystemFont, Segoe UI, sans-serif">Large escaped strings</text>
  <rect x="460" y="1022" width="8" height="10" rx="2" fill="#5b9cff"/>
  <rect x="460" y="1036" width="756" height="10" rx="2" fill="#31d0aa"/>
  <rect x="460" y="1050" width="487" height="10" rx="2" fill="#f6c65b"/>
  <text x="474" y="1030" fill="#9ec5ff" font-size="10" font-family="-apple-system, BlinkMacSystemFont, Segoe UI, sans-serif">1.00x</text>
  <text x="1221" y="1044" fill="#7be3c8" font-size="10" font-family="-apple-system, BlinkMacSystemFont, Segoe UI, sans-serif">103.94x</text>
  <text x="952" y="1058" fill="#ffe08a" font-size="10" font-family="-apple-system, BlinkMacSystemFont, Segoe UI, sans-serif">67.01x</text>

  <text x="34" y="1086" fill="#dce6ef" font-size="12" font-family="-apple-system, BlinkMacSystemFont, Segoe UI, sans-serif">Large safe ASCII strings</text>
  <rect x="460" y="1074" width="8" height="10" rx="2" fill="#5b9cff"/>
  <rect x="460" y="1088" width="205" height="10" rx="2" fill="#31d0aa"/>
  <rect x="460" y="1102" width="141" height="10" rx="2" fill="#f6c65b"/>
  <text x="474" y="1082" fill="#9ec5ff" font-size="10" font-family="-apple-system, BlinkMacSystemFont, Segoe UI, sans-serif">1.00x</text>
  <text x="671" y="1096" fill="#7be3c8" font-size="10" font-family="-apple-system, BlinkMacSystemFont, Segoe UI, sans-serif">28.14x</text>
  <text x="607" y="1110" fill="#ffe08a" font-size="10" font-family="-apple-system, BlinkMacSystemFont, Segoe UI, sans-serif">19.42x</text>

  <text x="34" y="1138" fill="#dce6ef" font-size="12" font-family="-apple-system, BlinkMacSystemFont, Segoe UI, sans-serif">Encode exchange-rate feed</text>
  <rect x="460" y="1126" width="8" height="10" rx="2" fill="#5b9cff"/>
  <rect x="460" y="1140" width="8" height="10" rx="2" fill="#31d0aa"/>
  <rect x="460" y="1154" width="8" height="10" rx="2" fill="#f6c65b"/>
  <text x="474" y="1134" fill="#9ec5ff" font-size="10" font-family="-apple-system, BlinkMacSystemFont, Segoe UI, sans-serif">1.00x</text>
  <text x="474" y="1148" fill="#7be3c8" font-size="10" font-family="-apple-system, BlinkMacSystemFont, Segoe UI, sans-serif">1.16x</text>
  <text x="474" y="1162" fill="#ffe08a" font-size="10" font-family="-apple-system, BlinkMacSystemFont, Segoe UI, sans-serif">0.98x</text>

  <text x="34" y="1190" fill="#dce6ef" font-size="12" font-family="-apple-system, BlinkMacSystemFont, Segoe UI, sans-serif">Decode exchange-rate feed</text>
  <rect x="460" y="1178" width="8" height="10" rx="2" fill="#5b9cff"/>
  <rect x="460" y="1192" width="10" height="10" rx="2" fill="#31d0aa"/>
  <rect x="460" y="1206" width="10" height="10" rx="2" fill="#f6c65b"/>
  <text x="474" y="1186" fill="#9ec5ff" font-size="10" font-family="-apple-system, BlinkMacSystemFont, Segoe UI, sans-serif">1.00x</text>
  <text x="476" y="1200" fill="#7be3c8" font-size="10" font-family="-apple-system, BlinkMacSystemFont, Segoe UI, sans-serif">1.40x</text>
  <text x="476" y="1214" fill="#ffe08a" font-size="10" font-family="-apple-system, BlinkMacSystemFont, Segoe UI, sans-serif">1.41x</text>

  <rect x="20" y="1220" width="1320" height="80" rx="10" fill="#0f1627" stroke="#223146"/>
  <text x="34" y="1248" fill="#dce6ef" font-size="16" font-family="-apple-system, BlinkMacSystemFont, Segoe UI, sans-serif">Head-to-Head Decode Reference</text>
  <text x="34" y="1272" fill="#9fb0c0" font-size="13" font-family="-apple-system, BlinkMacSystemFont, Segoe UI, sans-serif">Decode large escaped string: ToonDecoder = 2,291 ops/s · JSONDecoder = 28,921 ops/s · Toon vs JSON = 0.08x</text>
</svg>
